<svg width="24" height="24" viewBox="0 0 24 24" fill="none" xmlns="http://www.w3.org/2000/svg">
<g id="SVG" clip-path="url(#clip0_408_336)">
<path id="Vector" d="M4.66955 0.377672C4.13128 0.0292276 3.47412 -0.0844279 2.85009 0.063L13.675 10.888L17.1834 7.37958L4.66955 0.377672ZM1.50652 0.942937C1.20459 1.34433 1.03083 1.83717 1.03083 2.35852V21.6409C1.03083 22.1623 1.20464 22.6551 1.50652 23.0565L12.5632 11.9998L1.50652 0.942937ZM21.7622 9.94158L18.6091 8.17734L14.7868 11.9997L18.6093 15.8223L21.7628 14.0579C22.5182 13.6346 22.9692 12.8653 22.9692 11.9997C22.9692 11.1341 22.5182 10.3649 21.7622 9.94158ZM13.675 13.1115L2.8507 23.9357C3.02817 23.9775 3.20878 24 3.38939 24C3.84365 23.9999 4.2882 23.8686 4.66955 23.6217L17.1835 16.6199L13.675 13.1115Z" fill="white"/>
</g>
<defs>
<clipPath id="clip0_408_336">
<rect width="24" height="24" fill="white"/>
</clipPath>
</defs>
</svg>
