<svg width="19" height="21" viewBox="0 0 19 21" fill="none" xmlns="http://www.w3.org/2000/svg">
<g id="SVG" clip-path="url(#clip0_408_352)">
<path id="Vector" d="M9.50391 6.00781C7.01953 6.00781 5.01562 8.01172 5.01562 10.4961C5.01562 12.9805 7.01953 14.9844 9.50391 14.9844C11.9883 14.9844 13.9922 12.9805 13.9922 10.4961C13.9922 8.01172 11.9883 6.00781 9.50391 6.00781ZM9.50391 13.4141C7.89844 13.4141 6.58594 12.1055 6.58594 10.4961C6.58594 8.88672 7.89453 7.57812 9.50391 7.57812C11.1133 7.57812 12.4219 8.88672 12.4219 10.4961C12.4219 12.1055 11.1094 13.4141 9.50391 13.4141ZM15.2227 5.82422C15.2227 6.40625 14.7539 6.87109 14.1758 6.87109C13.5938 6.87109 13.1289 6.40234 13.1289 5.82422C13.1289 5.24609 13.5977 4.77734 14.1758 4.77734C14.7539 4.77734 15.2227 5.24609 15.2227 5.82422ZM18.1953 6.88672C18.1289 5.48438 17.8086 4.24219 16.7812 3.21875C15.7578 2.19531 14.5156 1.875 13.1133 1.80469C11.668 1.72266 7.33594 1.72266 5.89062 1.80469C4.49219 1.87109 3.25 2.19141 2.22266 3.21484C1.19531 4.23828 0.878906 5.48047 0.808594 6.88281C0.726562 8.32812 0.726562 12.6602 0.808594 14.1055C0.875 15.5078 1.19531 16.75 2.22266 17.7734C3.25 18.7969 4.48828 19.1172 5.89062 19.1875C7.33594 19.2695 11.668 19.2695 13.1133 19.1875C14.5156 19.1211 15.7578 18.8008 16.7812 17.7734C17.8047 16.75 18.125 15.5078 18.1953 14.1055C18.2773 12.6602 18.2773 8.33203 18.1953 6.88672ZM16.3281 15.6562C16.0234 16.4219 15.4336 17.0117 14.6641 17.3203C13.5117 17.7773 10.7773 17.6719 9.50391 17.6719C8.23047 17.6719 5.49219 17.7734 4.34375 17.3203C3.57812 17.0156 2.98828 16.4258 2.67969 15.6562C2.22266 14.5039 2.32812 11.7695 2.32812 10.4961C2.32812 9.22266 2.22656 6.48438 2.67969 5.33594C2.98438 4.57031 3.57422 3.98047 4.34375 3.67188C5.49609 3.21484 8.23047 3.32031 9.50391 3.32031C10.7773 3.32031 13.5156 3.21875 14.6641 3.67188C15.4297 3.97656 16.0195 4.56641 16.3281 5.33594C16.7852 6.48828 16.6797 9.22266 16.6797 10.4961C16.6797 11.7695 16.7852 14.5078 16.3281 15.6562Z" fill="white"/>
</g>
<defs>
<clipPath id="clip0_408_352">
<rect width="17.5" height="20" fill="white" transform="translate(0.75 0.5)"/>
</clipPath>
</defs>
</svg>
