<svg width="17" height="17" viewBox="0 0 17 17" fill="none" xmlns="http://www.w3.org/2000/svg">
<g id="SVG" clip-path="url(#clip0_408_346)">
<path id="Vector" d="M0.5 1.646C0.5 1.013 1.026 0.5 1.675 0.5H15.325C15.974 0.5 16.5 1.013 16.5 1.646V15.354C16.5 15.987 15.974 16.5 15.325 16.5H1.675C1.026 16.5 0.5 15.987 0.5 15.354M5.443 13.894V6.669H3.042V13.894M4.243 5.682C5.08 5.682 5.601 5.128 5.601 4.434C5.586 3.725 5.081 3.186 4.259 3.186C3.437 3.186 2.9 3.726 2.9 4.434C2.9 5.128 3.421 5.682 4.227 5.682M9.151 13.894V9.859C9.151 9.643 9.167 9.427 9.231 9.273C9.404 8.842 9.799 8.395 10.463 8.395C11.332 8.395 11.679 9.057 11.679 10.029V13.894H14.08V9.75C14.08 7.53 12.896 6.498 11.316 6.498C10.042 6.498 9.471 7.198 9.151 7.691V7.716H9.135L9.151 7.691V6.669H6.751C6.781 7.347 6.751 13.894 6.751 13.894" fill="white"/>
</g>
<defs>
<clipPath id="clip0_408_346">
<rect width="16" height="16" fill="white" transform="translate(0.5 0.5)"/>
</clipPath>
</defs>
</svg>
