<svg width="23" height="21" viewBox="0 0 23 21" fill="none" xmlns="http://www.w3.org/2000/svg">
<g id="SVG" clip-path="url(#clip0_408_349)">
<path id="Vector" d="M21.7209 6.29219C21.4755 5.36875 20.7818 4.63609 19.8594 4.39043C18.3329 3.82031 11.5 3.82031 11.5 3.82031C11.5 3.82031 4.66707 3.82031 3.14062 4.39043C2.2182 4.63609 1.52445 5.36875 1.2791 6.29219C0.786367 8.14094 0.786367 12.0624 0.786367 12.0624C0.786367 12.0624 0.786367 15.9839 1.2791 17.8326C1.52445 18.7561 2.2182 19.4887 3.14062 19.7343C4.66707 17.1797 11.5 17.1797 11.5 17.1797C11.5 17.1797 18.3329 17.1797 19.8594 16.6096C20.7818 16.3639 21.4755 15.6312 21.7209 14.7078C22.2136 12.8591 22.2136 8.93758 22.2136 8.93758C22.2136 8.93758 22.2136 5.01613 21.7209 3.16738M9.625 13.625V7.375L15.25 10.5L9.625 13.625Z" fill="white"/>
</g>
<defs>
<clipPath id="clip0_408_349">
<rect width="22.5" height="20" fill="white" transform="translate(0.25 0.5)"/>
</clipPath>
</defs>
</svg>
